<?xml version="1.0" encoding="UTF-8"?>
<svg width="27px" height="16px" viewBox="0 0 27 16" version="1.1" xmlns="http://www.w3.org/2000/svg" xmlns:xlink="http://www.w3.org/1999/xlink">
    <!-- Generator: Sketch 61.2 (89653) - https://sketch.com -->
    <title>bed</title>
    <desc>Created with Sketch.</desc>
    <g id="Page-1" stroke="none" stroke-width="1" fill="none" fill-rule="evenodd">
        <g id="index-search" transform="translate(-26.000000, -214.000000)" fill="#5F5F5F" fill-rule="nonzero">
            <g id="bed" transform="translate(0.000000, 190.000000)">
                <path d="M30.6666667,32 L34.6666667,32 C35.0348565,32 35.3333333,31.7015232 35.3333333,31.3333333 L35.3333333,27.3333333 C35.3333333,26.9651435 35.0348565,26.6666667 34.6666667,26.6666667 L30.6666667,26.6666667 C30.2984768,26.6666667 30,26.9651435 30,27.3333333 L30,31.3333333 C30,31.7015232 30.2984768,32 30.6666667,32 Z M48,26.6666667 L37.3333333,26.6666667 C36.9651435,26.6666667 36.6666667,26.9651435 36.6666667,27.3333333 L36.6666667,33.3333333 L28.6666667,33.3333333 L28.6666667,24.6666667 C28.6666667,24.2984768 28.3681898,24 28,24 L26.6666667,24 C26.2984768,24 26,24.2984768 26,24.6666667 L26,39.3333333 C26,39.7015232 26.2984768,40 26.6666667,40 L28,40 C28.3681898,40 28.6666667,39.7015232 28.6666667,39.3333333 L28.6666667,37.3333333 L50,37.3333333 L50,39.3333333 C50,39.7015232 50.2984768,40 50.6666667,40 L52,40 C52.3681898,40 52.6666667,39.7015232 52.6666667,39.3333333 L52.6666667,31.3333333 C52.6666667,28.7560045 50.5773288,26.6666667 48,26.6666667 Z"></path>
            </g>
        </g>
    </g>
</svg>