<?xml version="1.0" encoding="UTF-8"?>
<svg width="16px" height="16px" viewBox="0 0 16 16" version="1.1" xmlns="http://www.w3.org/2000/svg" xmlns:xlink="http://www.w3.org/1999/xlink">
    <!-- Generator: Sketch 61.2 (89653) - https://sketch.com -->
    <title>Shape</title>
    <desc>Created with Sketch.</desc>
    <g id="Page-1" stroke="none" stroke-width="1" fill="none" fill-rule="evenodd">
        <g id="index-search" transform="translate(-32.000000, -151.000000)" fill="#5F5F5F" fill-rule="nonzero">
            <g id="bus" transform="translate(0.000000, 127.000000)">
                <path d="M47.25,28 L47,28 L47,26.5 C47,25.1 43.9,24 40,24 C36.1,24 33,25.1 33,26.5 L33,28 L32.75,28 C32.3359375,28 32,28.335625 32,28.75 L32,31.25 C32,31.6640625 32.3359375,32 32.75,32 L33,32 L33,37 C33,37.5521875 33.4478125,38 34,38 L34,39 C34,39.5521875 34.4478125,40 35,40 L36,40 C36.5521875,40 37,39.5521875 37,39 L37,38 L43,38 L43,39 C43,39.5521875 43.4478125,40 44,40 L45,40 C45.5521875,40 46,39.5521875 46,39 L46,38 L46.2,38 C46.7,38 47,37.6 47,37.2 L47,32 L47.25,32 C47.6640625,32 48,31.6640625 48,31.25 L48,28.75 C48,28.335625 47.6640625,28 47.25,28 Z M37,26.25 C37,26.111875 37.111875,26 37.25,26 L42.75,26 C42.888125,26 43,26.111875 43,26.25 L43,26.75 C43,26.888125 42.888125,27 42.75,27 L37.25,27 C37.111875,27 37,26.888125 37,26.75 L37,26.25 Z M35.5,36.5 C34.9478125,36.5 34.5,36.0521875 34.5,35.5 C34.5,34.9478125 34.9478125,34.5 35.5,34.5 C36.0521875,34.5 36.5,34.9478125 36.5,35.5 C36.5,36.0521875 36.0521875,36.5 35.5,36.5 Z M39.5,33 L36,33 C35.4478125,33 35,32.5521875 35,32 L35,29 C35,28.4478125 35.4478125,28 36,28 L39.5,28 L39.5,33 Z M40.5,33 L40.5,28 L44,28 C44.5521875,28 45,28.4478125 45,29 L45,32 C45,32.5521875 44.5521875,33 44,33 L40.5,33 Z M44.5,36.5 C43.9478125,36.5 43.5,36.0521875 43.5,35.5 C43.5,34.9478125 43.9478125,34.5 44.5,34.5 C45.0521875,34.5 45.5,34.9478125 45.5,35.5 C45.5,36.0521875 45.0521875,36.5 44.5,36.5 Z" id="Shape"></path>
            </g>
        </g>
    </g>
</svg>