<?xml version="1.0" encoding="UTF-8"?>
<svg width="27px" height="8px" viewBox="0 0 27 8" version="1.1" xmlns="http://www.w3.org/2000/svg" xmlns:xlink="http://www.w3.org/1999/xlink">
    <!-- Generator: Sketch 61.2 (89653) - https://sketch.com -->
    <title>Shape</title>
    <desc>Created with Sketch.</desc>
    <g id="Page-1" stroke="none" stroke-width="1" fill="none" fill-rule="evenodd">
        <g id="index-search" transform="translate(-26.000000, -409.000000)" fill="#5F5F5F" fill-rule="nonzero">
            <g id="more" transform="translate(0.000000, 381.000000)">
                <path d="M39.7741935,28.2258065 C41.8604839,28.2258065 43.5483871,29.9137097 43.5483871,32 C43.5483871,34.0862903 41.8604839,35.7741935 39.7741935,35.7741935 C37.6879032,35.7741935 36,34.0862903 36,32 C36,29.9137097 37.6879032,28.2258065 39.7741935,28.2258065 Z M36,22.7741935 C36,24.8604839 37.6879032,26.5483871 39.7741935,26.5483871 C41.8604839,26.5483871 43.5483871,24.8604839 43.5483871,22.7741935 C43.5483871,20.6879032 41.8604839,19 39.7741935,19 C37.6879032,19 36,20.6879032 36,22.7741935 Z M36,41.2258065 C36,43.3120968 37.6879032,45 39.7741935,45 C41.8604839,45 43.5483871,43.3120968 43.5483871,41.2258065 C43.5483871,39.1395161 41.8604839,37.4516129 39.7741935,37.4516129 C37.6879032,37.4516129 36,39.1395161 36,41.2258065 Z" id="Shape" transform="translate(39.774194, 32.000000) rotate(90.000000) translate(-39.774194, -32.000000) "></path>
            </g>
        </g>
    </g>
</svg>