<?xml version="1.0" encoding="UTF-8"?>
<svg width="17px" height="16px" viewBox="0 0 17 16" version="1.1" xmlns="http://www.w3.org/2000/svg" xmlns:xlink="http://www.w3.org/1999/xlink">
    <!-- Generator: Sketch 61.2 (89653) - https://sketch.com -->
    <title>Path</title>
    <desc>Created with Sketch.</desc>
    <g id="Page-1" stroke="none" stroke-width="1" fill="none" fill-rule="evenodd">
        <g id="index-search" transform="translate(-31.000000, -89.000000)" fill="#5F5F5F" fill-rule="nonzero">
            <g id="plane" transform="translate(0.000000, 64.000000)">
                <path d="M45.3332597,30 L42.1585375,30 L39.239093,24.251875 C39.1598508,24.0960967 39.0125223,24 38.8529819,24 L37.0335375,24 C36.7382597,24 36.5252041,24.3178125 36.6063152,24.6371875 L37.9682597,30 L35.1110375,30 L33.9110375,28.2 C33.8271486,28.0740625 33.6952041,28 33.5554819,28 L32.4446486,28 C32.1554819,28 31.9432597,28.305625 32.0135375,28.62125 L32.8888152,32 L32.0135375,35.37875 C31.9432597,35.694375 32.1554819,36 32.4446486,36 L33.5554819,36 C33.6954819,36 33.8271486,35.9259375 33.9110375,35.8 L35.1110375,34 L37.9682597,34 L36.6063152,39.3625 C36.5252041,39.681875 36.7382597,40 37.0335375,40 L38.8529819,40 C39.0124263,40 39.1596486,39.90375 39.2388152,39.748125 L42.1585375,34 L45.3332597,34 C46.3152041,34 47.9999263,33.1046875 47.9999263,32 C47.9999263,30.8953125 46.3152041,30 45.3332597,30 Z" id="Path" transform="translate(39.999963, 32.000000) rotate(-30.000000) translate(-39.999963, -32.000000) "></path>
            </g>
        </g>
    </g>
</svg>