<?xml version="1.0" encoding="UTF-8"?>
<svg width="17px" height="16px" viewBox="0 0 17 16" version="1.1" xmlns="http://www.w3.org/2000/svg" xmlns:xlink="http://www.w3.org/1999/xlink">
    <!-- Generator: Sketch 61.2 (89653) - https://sketch.com -->
    <title>Shape</title>
    <desc>Created with Sketch.</desc>
    <g id="Page-1" stroke="none" stroke-width="1" fill="none" fill-rule="evenodd">
        <g id="index-search" transform="translate(-31.000000, -277.000000)" fill="#5F5F5F" fill-rule="nonzero">
            <g id="train" transform="translate(0.000000, 253.000000)">
                <path d="M46.1578947,27.3684211 L42.7894737,27.3684211 L42.7894737,25.6842105 C42.7894737,24.7494737 42.04,24 41.1052632,24 L37.7368421,24 C36.8021053,24 36.0526316,24.7494737 36.0526316,25.6842105 L36.0526316,27.3684211 L32.6842105,27.3684211 C31.7494737,27.3684211 31.0084211,28.1178947 31.0084211,29.0526316 L31,38.3157895 C31,39.2505263 31.7494737,40 32.6842105,40 L46.1578947,40 C47.0926316,40 47.8421053,39.2505263 47.8421053,38.3157895 L47.8421053,29.0526316 C47.8421053,28.1178947 47.0926316,27.3684211 46.1578947,27.3684211 Z M41.1052632,27.3684211 L37.7368421,27.3684211 L37.7368421,25.6842105 L41.1052632,25.6842105 L41.1052632,27.3684211 Z" id="Shape"></path>
            </g>
        </g>
    </g>
</svg>