<?xml version="1.0" encoding="UTF-8"?>
<svg width="49px" height="28px" viewBox="0 0 49 28" version="1.1" xmlns="http://www.w3.org/2000/svg" xmlns:xlink="http://www.w3.org/1999/xlink">
    <!-- Generator: Sketch 61.2 (89653) - https://sketch.com -->
    <title>v2</title>
    <desc>Created with Sketch.</desc>
    <g id="Page-1" stroke="none" stroke-width="1" fill="none" fill-rule="evenodd">
        <g id="index-search" transform="translate(-15.000000, -18.000000)">
            <g id="logo">
                <g id="v2" transform="translate(15.000000, 18.000000)">
                    <g id="Shapes" transform="translate(0.000000, 0.098000)">
                        <g id="N-shape" transform="translate(27.529091, 0.000000)" fill="#5F5F5F">
                            <polygon id="Rectangle-4" points="0.0534545455 12.1246512 6.468 17.867907 6.468 27.44 0.0534545455 27.44"></polygon>
                            <polygon id="Rectangle-4" points="14.8069091 0 21.2214545 0 21.2214545 15.3153488 14.8069091 9.57209302"></polygon>
                            <polygon id="Rectangle-4" points="0.0459920862 8.93395349 0.0355203427 0 21.1885785 18.5060465 21.2521602 27.44"></polygon>
                        </g>
                        <g id="D-shape" fill="#A82900">
                            <path d="M24.6414773,0 L24.6414773,27.44 L-8.91304808e-14,27.44 L-8.91304808e-14,20.42 L17.9607273,20.4204651 L17.9607273,7.01953488 L-8.91304808e-14,7.019 L-8.91304808e-14,0 L24.6414773,0 Z" id="Combined-Shape"></path>
                            <rect id="Rectangle-2" x="0" y="10.2102326" width="6.41454545" height="7.01953488"></rect>
                        </g>
                    </g>
                </g>
            </g>
        </g>
    </g>
</svg>